<svg width="101" height="101" viewBox="0 0 101 101" fill="none" xmlns="http://www.w3.org/2000/svg">
<g opacity="0.5" filter="url(#filter0_f_53_7557)">
<path d="M81.3837 39.3548L61.6452 19.6163C55.49 13.4612 45.51 13.4612 39.3548 19.6163L19.6163 39.3548C13.4612 45.51 13.4612 55.49 19.6163 61.6452L39.3548 81.3837C45.51 87.5388 55.49 87.5388 61.6452 81.3837L81.3837 61.6452C87.5388 55.49 87.5388 45.51 81.3837 39.3548ZM78.6613 52.7108L46.2886 74.0066C44.9985 74.8534 43.3844 73.5349 43.9584 72.1026L49.7725 57.5702C50.1476 56.6381 49.5622 55.598 48.5676 55.4275L22.9468 51.1593C21.5317 50.9263 21.1395 49.0735 22.3387 48.2892L54.7114 26.9934C56.0015 26.1466 57.6156 27.4651 57.0416 28.8974L51.2275 43.4298C50.8524 44.3619 51.4378 45.402 52.4324 45.5725L78.0532 49.8407C79.4683 50.0737 79.8605 51.9265 78.6613 52.7108Z" fill="#3366FF"/>
<path d="M81.3837 39.3548L61.6452 19.6163C55.49 13.4612 45.51 13.4612 39.3548 19.6163L19.6163 39.3548C13.4612 45.51 13.4612 55.49 19.6163 61.6452L39.3548 81.3837C45.51 87.5388 55.49 87.5388 61.6452 81.3837L81.3837 61.6452C87.5388 55.49 87.5388 45.51 81.3837 39.3548ZM78.6613 52.7108L46.2886 74.0066C44.9985 74.8534 43.3844 73.5349 43.9584 72.1026L49.7725 57.5702C50.1476 56.6381 49.5622 55.598 48.5676 55.4275L22.9468 51.1593C21.5317 50.9263 21.1395 49.0735 22.3387 48.2892L54.7114 26.9934C56.0015 26.1466 57.6156 27.4651 57.0416 28.8974L51.2275 43.4298C50.8524 44.3619 51.4378 45.402 52.4324 45.5725L78.0532 49.8407C79.4683 50.0737 79.8605 51.9265 78.6613 52.7108Z" fill="url(#paint0_linear_53_7557)" fill-opacity="0.12"/>
</g>
<path d="M77.8388 40.9536L60.0463 23.1612C54.4981 17.6129 45.5019 17.6129 39.9536 23.1612L22.1612 40.9536C16.6129 46.5019 16.6129 55.4981 22.1612 61.0463L39.9536 78.8388C45.5019 84.3871 54.4981 84.3871 60.0463 78.8388L77.8388 61.0463C83.3871 55.4981 83.3871 46.5019 77.8388 40.9536ZM75.3848 52.9929L46.2038 72.189C45.0409 72.9524 43.5859 71.7638 44.1033 70.4728L49.3442 57.3731C49.6824 56.5329 49.1547 55.5954 48.2582 55.4417L25.1633 51.5943C23.8877 51.3842 23.5342 49.7141 24.6152 49.0071L53.7962 29.811C54.9591 29.0476 56.4141 30.2362 55.8967 31.5272L50.6558 44.6269C50.3176 45.4671 50.8453 46.4046 51.7418 46.5583L74.8367 50.4057C76.1123 50.6158 76.4658 52.2859 75.3848 52.9929Z" fill="#3366FF"/>
<path d="M77.8388 40.9536L60.0463 23.1612C54.4981 17.6129 45.5019 17.6129 39.9536 23.1612L22.1612 40.9536C16.6129 46.5019 16.6129 55.4981 22.1612 61.0463L39.9536 78.8388C45.5019 84.3871 54.4981 84.3871 60.0463 78.8388L77.8388 61.0463C83.3871 55.4981 83.3871 46.5019 77.8388 40.9536ZM75.3848 52.9929L46.2038 72.189C45.0409 72.9524 43.5859 71.7638 44.1033 70.4728L49.3442 57.3731C49.6824 56.5329 49.1547 55.5954 48.2582 55.4417L25.1633 51.5943C23.8877 51.3842 23.5342 49.7141 24.6152 49.0071L53.7962 29.811C54.9591 29.0476 56.4141 30.2362 55.8967 31.5272L50.6558 44.6269C50.3176 45.4671 50.8453 46.4046 51.7418 46.5583L74.8367 50.4057C76.1123 50.6158 76.4658 52.2859 75.3848 52.9929Z" fill="url(#paint1_linear_53_7557)" fill-opacity="0.12"/>
<defs>
<filter id="filter0_f_53_7557" x="0" y="0" width="101" height="101" filterUnits="userSpaceOnUse" color-interpolation-filters="sRGB">
<feFlood flood-opacity="0" result="BackgroundImageFix"/>
<feBlend mode="normal" in="SourceGraphic" in2="BackgroundImageFix" result="shape"/>
<feGaussianBlur stdDeviation="7.5" result="effect1_foregroundBlur_53_7557"/>
</filter>
<linearGradient id="paint0_linear_53_7557" x1="50.5" y1="15" x2="50.5" y2="86" gradientUnits="userSpaceOnUse">
<stop stop-color="white"/>
<stop offset="1" stop-color="white" stop-opacity="0"/>
</linearGradient>
<linearGradient id="paint1_linear_53_7557" x1="50" y1="19" x2="50" y2="83" gradientUnits="userSpaceOnUse">
<stop stop-color="white"/>
<stop offset="1" stop-color="white" stop-opacity="0"/>
</linearGradient>
</defs>
</svg>
